<mxfile host="app.diagrams.net" modified="2023-10-09T07:43:16.642Z" agent="Mozilla/5.0 (Windows NT 10.0; Win64; x64) AppleWebKit/537.36 (KHTML, like Gecko) Chrome/114.0.0.0 YaBrowser/23.7.4.999 (corp) Yowser/2.5 Safari/537.36" version="22.0.4" etag="-Q2F7hM89Jv4qabuzZEa" type="github">
  <diagram name="Страница — 1" id="f7boYX_Wf2LelIqPK47k">
    <mxGraphModel>
      <root>
        <mxCell id="0" />
        <mxCell id="1" parent="0" />
      </root>
    </mxGraphModel>
  </diagram>
</mxfile>
